<mxfile host="app.diagrams.net" agent="Mozilla/5.0 (Windows NT 10.0; Win64; x64) AppleWebKit/537.36 (KHTML, like Gecko) Chrome/138.0.0.0 Safari/537.36" version="27.2.0">
  <diagram name="Page-1" id="cI7qLK2v5FZf0eqWaXXn">
    <mxGraphModel dx="2946" dy="1111" grid="1" gridSize="10" guides="1" tooltips="1" connect="1" arrows="1" fold="1" page="1" pageScale="1" pageWidth="827" pageHeight="1169" math="0" shadow="0">
      <root>
        <mxCell id="0" />
        <mxCell id="1" parent="0" />
        <mxCell id="PjkRn4eeTqWbHvlqRvfk-1" value="Actor" style="shape=umlActor;verticalLabelPosition=bottom;verticalAlign=top;html=1;outlineConnect=0;" parent="1" vertex="1">
          <mxGeometry x="100" y="210" width="30" height="60" as="geometry" />
        </mxCell>
        <mxCell id="PjkRn4eeTqWbHvlqRvfk-2" value="Bedrock agent" style="sketch=0;points=[[0,0,0],[0.25,0,0],[0.5,0,0],[0.75,0,0],[1,0,0],[0,1,0],[0.25,1,0],[0.5,1,0],[0.75,1,0],[1,1,0],[0,0.25,0],[0,0.5,0],[0,0.75,0],[1,0.25,0],[1,0.5,0],[1,0.75,0]];outlineConnect=0;fontColor=#232F3E;fillColor=#01A88D;strokeColor=#ffffff;dashed=0;verticalLabelPosition=bottom;verticalAlign=top;align=center;html=1;fontSize=12;fontStyle=0;aspect=fixed;shape=mxgraph.aws4.resourceIcon;resIcon=mxgraph.aws4.bedrock;" parent="1" vertex="1">
          <mxGeometry x="260" y="201" width="78" height="78" as="geometry" />
        </mxCell>
        <mxCell id="PjkRn4eeTqWbHvlqRvfk-3" value="" style="sketch=0;outlineConnect=0;fontColor=#232F3E;gradientColor=none;fillColor=#7AA116;strokeColor=none;dashed=0;verticalLabelPosition=bottom;verticalAlign=top;align=center;html=1;fontSize=12;fontStyle=0;aspect=fixed;pointerEvents=1;shape=mxgraph.aws4.bucket_with_objects;" parent="1" vertex="1">
          <mxGeometry x="262" y="20" width="75" height="78" as="geometry" />
        </mxCell>
        <mxCell id="PjkRn4eeTqWbHvlqRvfk-4" value="Lambda" style="sketch=0;points=[[0,0,0],[0.25,0,0],[0.5,0,0],[0.75,0,0],[1,0,0],[0,1,0],[0.25,1,0],[0.5,1,0],[0.75,1,0],[1,1,0],[0,0.25,0],[0,0.5,0],[0,0.75,0],[1,0.25,0],[1,0.5,0],[1,0.75,0]];outlineConnect=0;fontColor=#232F3E;fillColor=#ED7100;strokeColor=#ffffff;dashed=0;verticalLabelPosition=bottom;verticalAlign=top;align=center;html=1;fontSize=12;fontStyle=0;aspect=fixed;shape=mxgraph.aws4.resourceIcon;resIcon=mxgraph.aws4.lambda;" parent="1" vertex="1">
          <mxGeometry x="450" y="201" width="78" height="78" as="geometry" />
        </mxCell>
        <mxCell id="PjkRn4eeTqWbHvlqRvfk-5" value="DynamoDB" style="sketch=0;points=[[0,0,0],[0.25,0,0],[0.5,0,0],[0.75,0,0],[1,0,0],[0,1,0],[0.25,1,0],[0.5,1,0],[0.75,1,0],[1,1,0],[0,0.25,0],[0,0.5,0],[0,0.75,0],[1,0.25,0],[1,0.5,0],[1,0.75,0]];outlineConnect=0;fontColor=#232F3E;fillColor=#C925D1;strokeColor=#ffffff;dashed=0;verticalLabelPosition=bottom;verticalAlign=top;align=center;html=1;fontSize=12;fontStyle=0;aspect=fixed;shape=mxgraph.aws4.resourceIcon;resIcon=mxgraph.aws4.dynamodb;" parent="1" vertex="1">
          <mxGeometry x="650" y="201" width="78" height="78" as="geometry" />
        </mxCell>
        <mxCell id="PjkRn4eeTqWbHvlqRvfk-6" value="" style="endArrow=classic;html=1;rounded=0;entryX=0;entryY=0.5;entryDx=0;entryDy=0;entryPerimeter=0;" parent="1" source="PjkRn4eeTqWbHvlqRvfk-1" target="PjkRn4eeTqWbHvlqRvfk-2" edge="1">
          <mxGeometry width="50" height="50" relative="1" as="geometry">
            <mxPoint x="170" y="260" as="sourcePoint" />
            <mxPoint x="220" y="210" as="targetPoint" />
          </mxGeometry>
        </mxCell>
        <mxCell id="PjkRn4eeTqWbHvlqRvfk-11" value="Asks question" style="edgeLabel;html=1;align=center;verticalAlign=middle;resizable=0;points=[];" parent="PjkRn4eeTqWbHvlqRvfk-6" vertex="1" connectable="0">
          <mxGeometry x="-0.0862" y="2" relative="1" as="geometry">
            <mxPoint y="-8" as="offset" />
          </mxGeometry>
        </mxCell>
        <mxCell id="PjkRn4eeTqWbHvlqRvfk-7" value="" style="endArrow=classic;html=1;rounded=0;exitX=0.5;exitY=0;exitDx=0;exitDy=0;exitPerimeter=0;" parent="1" source="PjkRn4eeTqWbHvlqRvfk-2" target="PjkRn4eeTqWbHvlqRvfk-3" edge="1">
          <mxGeometry width="50" height="50" relative="1" as="geometry">
            <mxPoint x="320" y="180" as="sourcePoint" />
            <mxPoint x="370" y="130" as="targetPoint" />
          </mxGeometry>
        </mxCell>
        <mxCell id="PjkRn4eeTqWbHvlqRvfk-10" value="Fetches OpenAPI specification" style="edgeLabel;html=1;align=center;verticalAlign=middle;resizable=0;points=[];" parent="PjkRn4eeTqWbHvlqRvfk-7" vertex="1" connectable="0">
          <mxGeometry x="-0.072" y="2" relative="1" as="geometry">
            <mxPoint as="offset" />
          </mxGeometry>
        </mxCell>
        <mxCell id="PjkRn4eeTqWbHvlqRvfk-8" value="" style="endArrow=classic;html=1;rounded=0;exitX=1;exitY=0.5;exitDx=0;exitDy=0;exitPerimeter=0;entryX=0;entryY=0.5;entryDx=0;entryDy=0;entryPerimeter=0;" parent="1" source="PjkRn4eeTqWbHvlqRvfk-2" target="PjkRn4eeTqWbHvlqRvfk-4" edge="1">
          <mxGeometry width="50" height="50" relative="1" as="geometry">
            <mxPoint x="389" y="201" as="sourcePoint" />
            <mxPoint x="439" y="151" as="targetPoint" />
          </mxGeometry>
        </mxCell>
        <mxCell id="PjkRn4eeTqWbHvlqRvfk-12" value="h" style="edgeLabel;html=1;align=center;verticalAlign=middle;resizable=0;points=[];" parent="PjkRn4eeTqWbHvlqRvfk-8" vertex="1" connectable="0">
          <mxGeometry x="0.0429" y="1" relative="1" as="geometry">
            <mxPoint as="offset" />
          </mxGeometry>
        </mxCell>
        <mxCell id="PjkRn4eeTqWbHvlqRvfk-13" value="Fetch Account&lt;div&gt;&amp;nbsp;Status&lt;/div&gt;" style="edgeLabel;html=1;align=center;verticalAlign=middle;resizable=0;points=[];" parent="PjkRn4eeTqWbHvlqRvfk-8" vertex="1" connectable="0">
          <mxGeometry x="-0.0464" y="1" relative="1" as="geometry">
            <mxPoint y="-19" as="offset" />
          </mxGeometry>
        </mxCell>
        <mxCell id="PjkRn4eeTqWbHvlqRvfk-9" value="" style="endArrow=classic;html=1;rounded=0;exitX=1;exitY=0.5;exitDx=0;exitDy=0;exitPerimeter=0;entryX=0;entryY=0.5;entryDx=0;entryDy=0;entryPerimeter=0;" parent="1" source="PjkRn4eeTqWbHvlqRvfk-4" target="PjkRn4eeTqWbHvlqRvfk-5" edge="1">
          <mxGeometry width="50" height="50" relative="1" as="geometry">
            <mxPoint x="610" y="380" as="sourcePoint" />
            <mxPoint x="660" y="330" as="targetPoint" />
          </mxGeometry>
        </mxCell>
        <mxCell id="PjkRn4eeTqWbHvlqRvfk-14" value="Status retrieval" style="edgeLabel;html=1;align=center;verticalAlign=middle;resizable=0;points=[];" parent="PjkRn4eeTqWbHvlqRvfk-9" vertex="1" connectable="0">
          <mxGeometry x="-0.141" y="-3" relative="1" as="geometry">
            <mxPoint y="-13" as="offset" />
          </mxGeometry>
        </mxCell>
        <mxCell id="s7xoQi8Sr9u8EWsPJ6Vx-1" value="" style="sketch=0;outlineConnect=0;fontColor=#232F3E;gradientColor=none;fillColor=#7AA116;strokeColor=none;dashed=0;verticalLabelPosition=bottom;verticalAlign=top;align=center;html=1;fontSize=12;fontStyle=0;aspect=fixed;pointerEvents=1;shape=mxgraph.aws4.bucket_with_objects;" vertex="1" parent="1">
          <mxGeometry x="450" y="370" width="75" height="78" as="geometry" />
        </mxCell>
        <mxCell id="s7xoQi8Sr9u8EWsPJ6Vx-2" value="Bedrock&lt;div&gt;Knowledge&lt;/div&gt;&lt;div&gt;Base&lt;/div&gt;" style="sketch=0;points=[[0,0,0],[0.25,0,0],[0.5,0,0],[0.75,0,0],[1,0,0],[0,1,0],[0.25,1,0],[0.5,1,0],[0.75,1,0],[1,1,0],[0,0.25,0],[0,0.5,0],[0,0.75,0],[1,0.25,0],[1,0.5,0],[1,0.75,0]];outlineConnect=0;fontColor=#232F3E;fillColor=#01A88D;strokeColor=#ffffff;dashed=0;verticalLabelPosition=bottom;verticalAlign=top;align=center;html=1;fontSize=12;fontStyle=0;aspect=fixed;shape=mxgraph.aws4.resourceIcon;resIcon=mxgraph.aws4.codeguru_2;" vertex="1" parent="1">
          <mxGeometry x="262" y="370" width="78" height="78" as="geometry" />
        </mxCell>
        <mxCell id="s7xoQi8Sr9u8EWsPJ6Vx-3" value="" style="endArrow=classic;html=1;rounded=0;exitX=0.5;exitY=1;exitDx=0;exitDy=0;exitPerimeter=0;" edge="1" parent="1" source="PjkRn4eeTqWbHvlqRvfk-2" target="s7xoQi8Sr9u8EWsPJ6Vx-2">
          <mxGeometry width="50" height="50" relative="1" as="geometry">
            <mxPoint x="260" y="610" as="sourcePoint" />
            <mxPoint x="310" y="560" as="targetPoint" />
          </mxGeometry>
        </mxCell>
        <mxCell id="s7xoQi8Sr9u8EWsPJ6Vx-4" value="Queries&lt;div&gt;Business code data source&lt;/div&gt;" style="edgeLabel;html=1;align=center;verticalAlign=middle;resizable=0;points=[];" vertex="1" connectable="0" parent="s7xoQi8Sr9u8EWsPJ6Vx-3">
          <mxGeometry x="0.0997" y="2" relative="1" as="geometry">
            <mxPoint as="offset" />
          </mxGeometry>
        </mxCell>
        <mxCell id="s7xoQi8Sr9u8EWsPJ6Vx-5" value="" style="endArrow=classic;html=1;rounded=0;exitX=1;exitY=0.5;exitDx=0;exitDy=0;exitPerimeter=0;" edge="1" parent="1" source="s7xoQi8Sr9u8EWsPJ6Vx-2" target="s7xoQi8Sr9u8EWsPJ6Vx-1">
          <mxGeometry width="50" height="50" relative="1" as="geometry">
            <mxPoint x="380" y="590" as="sourcePoint" />
            <mxPoint x="430" y="540" as="targetPoint" />
          </mxGeometry>
        </mxCell>
        <mxCell id="s7xoQi8Sr9u8EWsPJ6Vx-6" value="Sync&lt;div&gt;from bucket&lt;/div&gt;&lt;div&gt;documents&lt;/div&gt;" style="edgeLabel;html=1;align=center;verticalAlign=middle;resizable=0;points=[];" vertex="1" connectable="0" parent="s7xoQi8Sr9u8EWsPJ6Vx-5">
          <mxGeometry x="-0.1092" y="-4" relative="1" as="geometry">
            <mxPoint y="-33" as="offset" />
          </mxGeometry>
        </mxCell>
      </root>
    </mxGraphModel>
  </diagram>
</mxfile>
